HIERARCHY
ROOT Hips
{
	OFFSET 49.718800 -26.048416 96.495094
	CHANNELS 6 Xposition Yposition Zposition Xrotation Yrotation Zrotation
	JOINT spine
	{
		OFFSET 0.000000 -0.467661 8.132492
		CHANNELS 3 Xrotation Yrotation Zrotation
		JOINT spine1
		{
			OFFSET 0.000000 -0.000002 10.349800
			CHANNELS 3 Xrotation Yrotation Zrotation
			JOINT spine2
			{
				OFFSET 0.000000 -0.000002 9.916992
				CHANNELS 3 Xrotation Yrotation Zrotation
				JOINT Neck
				{
					OFFSET 0.000000 -1.213903 25.461014
					CHANNELS 3 Xrotation Yrotation Zrotation
					JOINT Head
					{
						OFFSET 0.000000 -0.000002 7.692444
						CHANNELS 3 Xrotation Yrotation Zrotation
						End Site
						{
							OFFSET 0.000000 6.140629 18.619995
						}
					}
				}
				JOINT RightShoulder
				{
					OFFSET -4.175751 0.581444 10.709610
					CHANNELS 3 Xrotation Yrotation Zrotation
					JOINT RightArm
					{
						OFFSET 0.000000 -0.000002 14.046600
						CHANNELS 3 Xrotation Yrotation Zrotation
						JOINT RightArmRoll
						{
							OFFSET 0.000000 0.000000 7.090988
							CHANNELS 3 Xrotation Yrotation Zrotation
							JOINT RightForeArm
							{
								OFFSET 0.000000 -0.000004 20.653503
								CHANNELS 3 Xrotation Yrotation Zrotation
								JOINT RightForeArmRoll
								{
									OFFSET 0.000000 -0.000002 7.957184
									CHANNELS 3 Xrotation Yrotation Zrotation
									JOINT RightHand
									{
										OFFSET 0.000000 -0.000002 15.968292
										CHANNELS 3 Xrotation Yrotation Zrotation
										End Site
										{
											OFFSET 0.000000 0.000000 0.100006
										}
									}
								}
							}
						}
					}
				}
				JOINT LeftShoulder
				{
					OFFSET 4.175751 0.581444 10.709610
					CHANNELS 3 Xrotation Yrotation Zrotation
					JOINT LeftArm
					{
						OFFSET 0.000000 -0.000002 14.046600
						CHANNELS 3 Xrotation Yrotation Zrotation
						JOINT LeftArmRoll
						{
							OFFSET 0.000000 0.000000 7.090973
							CHANNELS 3 Xrotation Yrotation Zrotation
							JOINT LeftForeArm
							{
								OFFSET 0.000000 -0.000004 20.653503
								CHANNELS 3 Xrotation Yrotation Zrotation
								JOINT LeftForeArmRoll
								{
									OFFSET 0.000000 -0.000002 7.957184
									CHANNELS 3 Xrotation Yrotation Zrotation
									JOINT LeftHand
									{
										OFFSET 0.000000 -0.000002 15.968307
										CHANNELS 3 Xrotation Yrotation Zrotation
										End Site
										{
											OFFSET 0.000000 0.000000 0.100006
										}
									}
								}
							}
						}
					}
				}
			}
		}
	}
	JOINT RightUpLeg
	{
		OFFSET -7.208340 1.108841 -1.321823
		CHANNELS 3 Xrotation Yrotation Zrotation
		JOINT RightUpLegRoll
		{
			OFFSET 0.000000 -0.000004 18.723801
			CHANNELS 3 Xrotation Yrotation Zrotation
			JOINT RightLeg
			{
				OFFSET 0.000000 0.000004 -23.186600
				CHANNELS 3 Xrotation Yrotation Zrotation
				JOINT RightLegRoll
				{
					OFFSET 0.000000 -0.000004 23.262398
					CHANNELS 3 Xrotation Yrotation Zrotation
					JOINT RightFoot
					{
						OFFSET 0.000000 -0.000002 19.362106
						CHANNELS 3 Xrotation Yrotation Zrotation
						JOINT RightToeBase
						{
							OFFSET 0.000000 -0.000004 16.185699
							CHANNELS 3 Xrotation Yrotation Zrotation
							End Site
							{
								OFFSET 0.006859 0.903522 7.838623
							}
						}
					}
				}
			}
		}
	}
	JOINT LeftUpLeg
	{
		OFFSET 7.208340 1.108841 -1.321823
		CHANNELS 3 Xrotation Yrotation Zrotation
		JOINT LeftUpLegRoll
		{
			OFFSET 0.000000 -0.000004 18.723900
			CHANNELS 3 Xrotation Yrotation Zrotation
			JOINT LeftLeg
			{
				OFFSET 0.000000 -0.000004 23.186508
				CHANNELS 3 Xrotation Yrotation Zrotation
				JOINT LeftLegRoll
				{
					OFFSET 0.000000 -0.000004 23.477509
					CHANNELS 3 Xrotation Yrotation Zrotation
					JOINT LeftFoot
					{
						OFFSET 0.000000 -0.000002 19.147003
						CHANNELS 3 Xrotation Yrotation Zrotation
						JOINT LeftToeBase
						{
							OFFSET 0.000000 -0.000004 16.185699
							CHANNELS 3 Xrotation Yrotation Zrotation
							End Site
							{
								OFFSET -0.030746 0.903522 7.838623
							}
						}
					}
				}
			}
		}
	}
}
MOTION
Frames: 13
Frame Time: 0.041667
49.852100 -9.573381 81.213593 6.718654 0.036103 0.010620 1.176987 -0.808403 0.119658 6.359177 -1.612164 0.263771 8.004537 -1.608899 0.283071 -8.032312 4.095284 -4.529689 -3.681760 1.478175 -5.612565 -16.768446 -51.427896 -19.710405 -30.713281 -128.424932 -39.165852 0.000003 0.000012 -0.000008 52.351433 -11.869086 3.779081 0.000010 0.000007 -3.000002 -5.000233 -7.998868 0.000140 -7.316391 59.669345 8.698260 -38.080856 124.807719 48.353491 -0.000001 -0.000007 0.000003 33.389458 10.613018 -3.267619 0.000008 -0.000004 3.002269 -5.000225 7.998852 -0.000140 -40.894788 -175.551571 3.411741 -179.999991 0.000005 -1.299999 103.397972 0.919433 -1.010002 -0.000003 0.000003 3.440900 92.185895 5.713249 5.707914 39.295765 -6.934490 2.617078 -43.227926 175.532050 -1.991629 -0.000005 0.000011 -1.427550 -77.558574 -1.814680 -0.429423 -0.000003 -0.000000 -3.991779 90.270703 -5.673736 -5.803190 36.724291 6.580362 -4.647856 
49.863998 -9.593122 81.168900 6.695192 0.019565 0.001620 1.165445 -0.806237 0.116184 6.336034 -1.607973 0.256597 7.981392 -1.604791 0.275847 -8.023317 4.163123 -4.528188 -3.642473 1.377673 -5.619837 -16.737355 -51.324849 -19.670475 -30.662420 -128.592122 -39.349266 0.000004 0.000013 -0.000008 52.805258 -11.796228 3.770952 0.000008 0.000008 -3.000001 -5.000236 -7.998872 0.000140 -7.492741 59.593073 8.899327 -37.788472 124.887577 48.649426 -0.000001 -0.000007 0.000004 34.326260 10.527915 -3.372852 0.000004 -0.000003 3.002269 -5.000223 7.998853 -0.000140 -40.798380 -175.599874 3.389000 -180.000005 0.000005 -1.303004 103.427458 0.935419 -0.998109 0.000001 0.000004 3.448019 92.299304 5.712504 5.713274 39.244778 -6.940942 2.593870 -43.111823 175.616062 -1.951220 -0.000007 0.000011 -1.431700 -77.517374 -1.825491 -0.447510 -0.000002 -0.000000 -4.004680 90.412300 -5.672546 -5.816875 36.630854 6.588829 -4.631536 
49.854801 -9.632967 81.209106 6.671371 0.001623 -0.009328 1.152974 -0.803795 0.112502 6.311030 -1.603240 0.248988 7.956393 -1.600145 0.268181 -8.010040 4.234533 -4.525320 -3.599472 1.273544 -5.626133 -16.704968 -51.219978 -19.628796 -30.607276 -128.749558 -39.541567 0.000003 0.000013 -0.000008 53.265439 -11.721472 3.763696 0.000005 0.000008 -3.000000 -5.000239 -7.998870 0.000139 -7.679983 59.518507 9.113364 -37.490359 124.953694 48.957208 -0.000001 -0.000007 0.000004 35.286011 10.432932 -3.480145 0.000005 -0.000003 3.002259 -5.000218 7.998854 -0.000139 -40.693809 -175.647808 3.365261 -179.999991 0.000005 -1.305995 103.470823 0.950552 -0.987264 0.000002 0.000004 3.454102 92.407084 5.712035 5.717906 39.192360 -6.947221 2.571308 -42.982992 175.698789 -1.911549 -0.000003 0.000011 -1.435470 -77.458607 -1.832289 -0.462275 0.000002 0.000000 -4.015769 90.554026 -5.671756 -5.828659 36.534351 6.597903 -4.612822 
49.866299 -9.660017 81.183601 6.647170 -0.017256 -0.022159 1.139722 -0.801156 0.108712 6.284463 -1.598113 0.241148 7.929826 -1.595108 0.260280 -7.992762 4.308289 -4.521365 -3.553408 1.167113 -5.631491 -16.670883 -51.113949 -19.584883 -30.546949 -128.897008 -39.743368 0.000003 0.000013 -0.000008 53.735154 -11.642974 3.756938 0.000004 0.000008 -3.000000 -5.000234 -7.998871 0.000140 -7.874259 59.445008 9.335888 -37.187638 125.006641 49.274511 -0.000001 -0.000007 0.000004 36.266098 10.325180 -3.587996 0.000001 -0.000004 3.002260 -5.000219 7.998855 -0.000137 -40.581962 -175.693912 3.339179 -179.999991 0.000005 -1.308003 103.528299 0.964640 -0.977412 -0.000001 0.000004 3.459050 92.507187 5.711674 5.720910 39.139101 -6.953218 2.549826 -42.843553 175.778962 -1.872740 -0.000004 0.000011 -1.438820 -77.382416 -1.835190 -0.473472 0.000002 0.000000 -4.024679 90.692495 -5.671581 -5.838101 36.436757 6.607405 -4.591906 
49.862297 -9.717863 81.247292 6.622562 -0.036603 -0.036807 1.125848 -0.798401 0.104916 6.256645 -1.592751 0.233283 7.902003 -1.589848 0.252352 -7.971755 4.383199 -4.516555 -3.504980 1.059675 -5.636000 -16.634721 -51.007439 -19.538233 -30.480829 -129.034322 -39.955866 0.000004 0.000013 -0.000008 54.217106 -11.559013 3.749866 -0.000000 0.000007 -3.000000 -5.000239 -7.998870 0.000140 -8.071902 59.372307 9.562575 -36.881492 125.048087 49.599109 -0.000001 -0.000007 0.000004 37.263801 10.202067 -3.694834 0.000004 -0.000003 3.002251 -5.000221 7.998856 -0.000142 -40.463530 -175.740576 3.312701 -180.000005 0.000005 -1.310996 103.600241 0.978178 -0.966649 -0.000002 0.000004 3.462800 92.597503 5.711633 5.722405 39.085802 -6.958813 2.529867 -42.695236 175.855993 -1.835620 -0.000004 0.000011 -1.441689 -77.289307 -1.834238 -0.480857 -0.000002 0.000000 -4.031099 90.824249 -5.671984 -5.843778 36.340390 6.617165 -4.569021 
49.875000 -9.746885 81.231598 6.597505 -0.055952 -0.053206 1.111487 -0.795610 0.101213 6.227857 -1.587311 0.225598 7.873211 -1.584500 0.244601 -7.947301 4.458036 -4.511185 -3.454849 0.952555 -5.639715 -16.595936 -50.901128 -19.488254 -30.407534 -129.162156 -40.179093 0.000004 0.000013 -0.000008 54.714265 -11.467910 3.741733 -0.000002 0.000008 -2.999999 -5.000233 -7.998873 0.000141 -8.269095 59.299791 9.788971 -36.572292 125.079355 49.927785 -0.000001 -0.000007 0.000002 38.276250 10.060825 -3.798667 0.000001 -0.000005 3.002247 -5.000222 7.998856 -0.000140 -40.339309 -175.785546 3.283866 -179.999991 0.000005 -1.313002 103.686766 0.990941 -0.956923 -0.000000 0.000003 3.465249 92.675975 5.711865 5.721486 39.033257 -6.963879 2.511901 -42.539979 175.929294 -1.800986 -0.000008 0.000011 -1.444060 -77.179519 -1.829511 -0.484210 -0.000001 0.000000 -4.034670 90.945833 -5.672803 -5.846945 36.247373 6.627020 -4.544370 
49.893101 -9.842134 81.277695 6.571955 -0.074834 -0.071290 1.096784 -0.792864 0.097703 6.198390 -1.581962 0.218297 7.843753 -1.579242 0.237238 -7.919656 4.531609 -4.505473 -3.403690 0.847057 -5.642741 -16.554287 -50.795642 -19.434584 -30.327549 -129.278651 -40.415384 0.000003 0.000013 -0.000008 55.229712 -11.367913 3.731876 0.000004 0.000006 -3.000000 -5.000230 -7.998873 0.000141 -8.462161 59.227111 10.010752 -36.260467 125.102906 50.257488 -0.000001 -0.000007 0.000003 39.300669 9.899003 -3.897513 0.000003 -0.000003 3.002236 -5.000221 7.998854 -0.000141 -40.210058 -175.830407 3.253951 -179.999991 0.000005 -1.314998 103.788290 1.002938 -0.947270 -0.000001 0.000003 3.466320 92.740363 5.712296 5.719261 38.982075 -6.968320 2.496355 -42.379719 175.996790 -1.768271 -0.000002 0.000011 -1.445870 -77.053270 -1.821079 -0.483294 -0.000002 -0.000000 -4.035079 91.053846 -5.674345 -5.845775 36.160111 6.636780 -4.518196 
49.908199 -9.874844 81.279495 6.545904 -0.092781 -0.090991 1.081894 -0.790244 0.094486 6.168553 -1.576852 0.211584 7.813911 -1.574204 0.230463 -7.889103 4.602675 -4.499700 -3.352181 0.744495 -5.645164 -16.509269 -50.691782 -19.376666 -30.239518 -129.384451 -40.665020 0.000004 0.000013 -0.000007 55.766121 -11.257488 3.719167 0.000002 0.000007 -3.000001 -5.000225 -7.998870 0.000141 -8.647455 59.153919 10.223650 -35.947617 125.119353 50.586379 -0.000001 -0.000007 0.000003 40.334412 9.714163 -3.989125 0.000002 -0.000003 3.002239 -5.000224 7.998856 -0.000139 -40.076422 -175.875199 3.222921 -179.999991 0.000005 -1.315995 103.904806 1.014145 -0.938662 0.000001 0.000003 3.465920 92.788612 5.713024 5.714826 38.933048 -6.972030 2.483684 -42.216405 176.058549 -1.738918 -0.000005 0.000011 -1.447090 -76.911045 -1.808977 -0.477905 -0.000002 0.000000 -4.031961 91.144858 -5.676327 -5.840246 36.080696 6.646300 -4.490721 
49.966499 -9.909357 81.417801 6.519292 -0.109326 -0.112240 1.066971 -0.787831 0.091662 6.138649 -1.572138 0.205662 7.784004 -1.569571 0.224486 -7.855918 4.670055 -4.494097 -3.301004 0.646177 -5.647092 -16.460402 -50.589982 -19.313919 -30.142663 -129.479391 -40.928614 0.000004 0.000013 -0.000008 56.326688 -11.135027 3.702693 -0.000000 0.000008 -2.999999 -5.000229 -7.998873 0.000140 -8.821247 59.079716 10.423259 -35.634152 125.131074 50.911438 -0.000001 -0.000007 0.000003 41.374578 9.503879 -4.070952 0.000005 -0.000003 3.002229 -5.000222 7.998854 -0.000139 -39.939388 -175.919281 3.190101 -179.999991 0.000005 -1.318003 104.036799 1.024798 -0.930163 -0.000002 0.000004 3.463959 92.818746 5.713984 5.706319 38.886763 -6.974898 2.474328 -42.051849 176.113177 -1.713033 -0.000007 0.000011 -1.447670 -76.753172 -1.793238 -0.467816 -0.000002 -0.000000 -4.025000 91.215517 -5.678947 -5.828709 36.011353 6.655405 -4.462148 
49.977798 -9.961555 81.412895 6.492097 -0.124002 -0.134967 1.052139 -0.785706 0.089330 6.108956 -1.567990 0.200735 7.754306 -1.565481 0.219509 -7.820363 4.732507 -4.488909 -3.250800 0.553418 -5.648627 -16.407544 -50.491098 -19.246090 -30.036679 -129.562391 -41.207795 0.000003 0.000013 -0.000007 56.914109 -10.999117 3.681364 0.000001 0.000008 -2.999999 -5.000232 -7.998871 0.000141 -8.979983 59.004283 10.605411 -35.321917 125.138710 51.231091 -0.000001 -0.000007 0.000004 42.418767 9.265964 -4.140477 0.000006 -0.000001 3.002229 -5.000221 7.998854 -0.000136 -39.799587 -175.963418 3.156128 -179.999991 0.000005 -1.319000 104.184366 1.035100 -0.920790 -0.000000 0.000004 3.460360 92.828452 5.715230 5.696799 38.844126 -6.976809 2.468753 -41.888048 176.159977 -1.691354 -0.000006 0.000011 -1.447570 -76.579794 -1.773923 -0.452809 -0.000003 0.000000 -4.013851 91.262180 -5.682214 -5.813360 35.954276 6.663960 -4.432716 
50.002499 -10.049511 81.555695 6.465819 -0.138205 -0.161806 1.036678 -0.783672 0.087110 6.077971 -1.564022 0.196024 7.723329 -1.561562 0.214750 -7.780029 4.795183 -4.482226 -3.201404 0.460833 -5.648525 -16.348189 -50.393959 -19.170008 -29.921881 -129.630502 -41.512544 0.000004 0.000013 -0.000008 57.537391 -10.850316 3.655691 0.000003 0.000008 -2.999999 -5.000230 -7.998869 0.000141 -9.137530 58.930715 10.786588 -35.009644 125.133150 51.561392 -0.000001 -0.000006 0.000005 43.486237 9.001996 -4.198224 0.000001 -0.000000 3.002221 -5.000221 7.998852 -0.000140 -39.658578 -176.008470 3.118152 -179.999991 0.000005 -1.319997 104.345196 1.046340 -0.910676 -0.000000 0.000003 3.455789 92.822066 5.716922 5.684059 38.801185 -6.977653 2.467731 -41.722446 176.200999 -1.673384 -0.000002 0.000011 -1.446780 -76.390079 -1.749534 -0.432832 -0.000002 0.000000 -3.998630 91.294583 -5.686323 -5.792710 35.904307 6.672629 -4.400344 
50.040798 -10.101614 81.577202 6.441592 -0.153497 -0.194764 1.019844 -0.781488 0.084607 6.044279 -1.559765 0.190725 7.689619 -1.557375 0.209401 -7.732869 4.863238 -4.472382 -3.151883 0.362961 -5.645731 -16.280792 -50.297254 -19.083863 -29.799531 -129.681004 -41.849580 0.000004 0.000013 -0.000008 58.199810 -10.691189 3.627068 0.000002 0.000008 -2.999999 -5.000235 -7.998873 0.000141 -9.308316 58.861600 10.983891 -34.695148 125.105092 51.916459 -0.000001 -0.000007 0.000004 44.594616 8.716265 -4.245541 0.000007 -0.000004 3.002216 -5.000219 7.998852 -0.000141 -39.516896 -176.056063 3.074972 -179.999991 0.000005 -1.322005 104.517501 1.059897 -0.899002 -0.000004 0.000003 3.450821 92.805025 5.719170 5.671862 38.754408 -6.977465 2.471298 -41.550759 176.238948 -1.658312 -0.000006 0.000011 -1.445380 -76.182933 -1.718887 -0.408168 -0.000004 0.000000 -3.979840 91.323475 -5.691504 -5.768213 35.855081 6.682075 -4.363252 
49.953899 -10.121712 81.691391 6.418841 -0.169652 -0.232838 1.001841 -0.779175 0.081899 6.008219 -1.555263 0.185001 7.653568 -1.552938 0.203623 -7.679638 4.935526 -4.460017 -3.101831 0.261004 -5.640653 -16.206960 -50.200859 -18.989565 -29.670359 -129.714144 -42.214677 0.000004 0.000013 -0.000008 58.895396 -10.523214 3.594586 0.000003 0.000008 -3.000000 -5.000233 -7.998872 0.000140 -9.489462 58.795894 11.193870 -34.378115 125.056720 52.291522 -0.000001 -0.000006 0.000004 45.738010 8.410914 -4.280913 0.000005 -0.000002 3.002209 -5.000222 7.998852 -0.000140 -39.373329 -176.104543 3.026759 -179.999991 0.000005 -1.323002 104.701889 1.075358 -0.884740 0.000002 0.000003 3.445260 92.777390 5.721701 5.656193 38.704701 -6.976413 2.478829 -41.372682 176.273823 -1.646068 -0.000005 0.000011 -1.443370 -75.958431 -1.682446 -0.379127 -0.000000 0.000000 -3.957669 91.347831 -5.697519 -5.738934 35.807137 6.692148 -4.322124 
